<svg width="27" height="36" viewBox="0 0 27 36" fill="none" xmlns="http://www.w3.org/2000/svg">
<mask id="mask0" mask-type="alpha" maskUnits="userSpaceOnUse" x="0" y="0" width="27" height="28">
<path d="M0 0H26.305V27.162H0V0Z" fill="white"/>
</mask>
<g mask="url(#mask0)">
<path fill-rule="evenodd" clip-rule="evenodd" d="M25.7619 26.4735V12.9373C25.7619 10.8889 24.04 9.22828 21.9158 9.22828H21.877V26.4735H25.7619ZM4.49181 9.22757H4.45332C2.34846 9.22757 0.642406 10.873 0.642406 12.9028V26.4735H4.49181V9.22757ZM12.1655 12.4533H18.7634V9.22793H12.1655V2.91943H11.4271C9.63904 2.91943 8.18948 4.31733 8.18948 6.04164V6.07305V9.26719L8.19836 19.657C8.20669 20.3944 8.25776 21.1411 8.39452 21.8649C8.76205 23.8096 9.72324 25.4038 11.6438 26.263C14.0784 27.3521 16.284 27.2115 18.7623 26.4321V22.8914C18.7623 22.8914 17.4382 23.4311 15.4863 23.4311C15.2156 23.4311 14.9434 23.4243 14.6771 23.3769C13.3824 23.1465 12.5521 22.3409 12.288 21.0061C12.2121 20.6221 12.1673 20.2243 12.1655 19.8327V12.4533ZM21.2744 2.84733C21.2641 4.18634 22.3485 5.21661 23.7788 5.22714C25.1934 5.23749 26.3053 4.19937 26.3051 2.86821C26.3051 1.54972 25.2312 0.534803 23.8244 0.52356C22.3794 0.51196 21.2846 1.50975 21.2744 2.84733ZM2.50558 0.523203C3.93997 0.519633 5.03274 1.5367 5.03052 2.87303C5.02812 4.20383 3.91295 5.24106 2.49966 5.22732C1.08729 5.2134 0.00987445 4.20597 6.63268e-05 2.89034C-0.00974179 1.54651 1.06934 0.526772 2.50558 0.523203Z" fill="url(#paint0_linear)"/>
</g>
<mask id="mask1" mask-type="alpha" maskUnits="userSpaceOnUse" x="15" y="30" width="11" height="6">
<path d="M15.7959 30.4585H25.344V35.1739H15.7959V30.4585Z" fill="white"/>
</mask>
<g mask="url(#mask1)">
<path fill-rule="evenodd" clip-rule="evenodd" d="M24.2628 31.4289H23.597L24.2506 30.4585H25.0754L24.2628 31.4289ZM23.713 35.1739C23.3871 35.1739 23.1275 35.0587 22.9342 34.8287C22.7406 34.5984 22.6439 34.2905 22.6439 33.9048V31.8644H23.4014V33.7804C23.4014 34.0252 23.4512 34.2127 23.5511 34.3434C23.6508 34.474 23.7924 34.5395 23.9756 34.5395C24.159 34.5395 24.3065 34.471 24.4186 34.334C24.5305 34.1972 24.5865 34.0148 24.5865 33.7867V31.8644H25.344V35.0931H24.6843L24.6415 34.7134C24.5397 34.8628 24.4084 34.9769 24.2474 35.0557C24.0866 35.1344 23.9084 35.1739 23.713 35.1739ZM20.6707 34.6265C20.858 34.6265 21.0179 34.558 21.1503 34.4212C21.2825 34.2842 21.3489 34.1185 21.3489 33.9235V33.6063C21.3081 33.6063 21.2663 33.6052 21.2236 33.6032C21.1808 33.601 21.1371 33.6 21.0922 33.6C20.7908 33.6 20.5599 33.6467 20.3989 33.74C20.238 33.8333 20.1577 33.9692 20.1577 34.1475C20.1577 34.2927 20.2044 34.4088 20.2981 34.4958C20.3917 34.583 20.5158 34.6265 20.6707 34.6265ZM20.4632 35.1739C20.1536 35.1739 19.9051 35.0889 19.7178 34.9189C19.5304 34.7489 19.4368 34.5208 19.4368 34.2344C19.4368 33.8696 19.5793 33.5867 19.8643 33.3854C20.1494 33.1842 20.5546 33.0838 21.0801 33.0838H21.2144C21.2592 33.0838 21.3021 33.0859 21.3427 33.0899C21.3305 32.8576 21.2654 32.6855 21.1473 32.5737C21.0292 32.4617 20.852 32.4056 20.6159 32.4056C20.3144 32.4056 20.0131 32.4926 19.7116 32.6669V32.0449C20.0415 31.8707 20.3816 31.7835 20.7318 31.7835C21.1595 31.7835 21.4894 31.9029 21.7217 32.1412C21.9536 32.3797 22.0697 32.7209 22.0697 33.1645V35.0931H21.4405L21.3978 34.7197C21.3 34.8608 21.1687 34.9717 21.0036 35.0526C20.8388 35.1335 20.6586 35.1739 20.4632 35.1739ZM18.5998 35.1552C18.2579 35.1552 17.9992 35.063 17.8241 34.8783C17.6488 34.6939 17.5613 34.4192 17.5613 34.0542V32.4617H17.0604V31.8644H17.5613V31.0058H18.3188V31.8644H19.0275V32.4617H18.3188V33.9857C18.3188 34.1724 18.3556 34.3103 18.4288 34.3994C18.502 34.4886 18.6161 34.5332 18.771 34.5332C18.8891 34.5332 19.003 34.5082 19.1129 34.4584V35.062C18.946 35.1242 18.7749 35.1552 18.5998 35.1552ZM15.7959 35.0929H16.5778V30.8938H15.7959V35.0929Z" fill="#181E29"/>
</g>
<defs>
<linearGradient id="paint0_linear" x1="0.301813" y1="0.523194" x2="26.2223" y2="26.8324" gradientUnits="userSpaceOnUse">
<stop stop-color="#E96401"/>
<stop offset="1" stop-color="#FD4D7C"/>
</linearGradient>
</defs>
</svg>
